<svg xmlns="http://www.w3.org/2000/svg" viewBox="0 0 96 96">
  <defs>
    <radialGradient id="skin" cx="0.38" cy="0.3" r="0.8">
      <stop offset="0" stop-color="#FBDCC6"/>
      <stop offset="0.6" stop-color="#EDB08E"/>
      <stop offset="1" stop-color="#D08A68"/>
    </radialGradient>
    <linearGradient id="knit" x1="0.2" y1="0" x2="0.8" y2="1">
      <stop offset="0" stop-color="#F5B860"/>
      <stop offset="1" stop-color="#B9661C"/>
    </linearGradient>
    <linearGradient id="silver" x1="0" y1="0" x2="1" y2="1">
      <stop offset="0" stop-color="#FFFFFF"/>
      <stop offset="1" stop-color="#C9CED3"/>
    </linearGradient>
  </defs>
  <ellipse cx="48" cy="89.5" rx="27" ry="3.6" fill="#1B2A20" fill-opacity="0.1"/>
  <path d="M19 89c0-14.5 11.8-23.5 29-23.5S77 74.5 77 89z" fill="url(#knit)"/>
  <path d="M41 66 48 80l7-14z" fill="#F4F1EA"/>
  <path d="M44.5 66.5 48 72l3.5-5.5z" fill="#8FA9C4"/>
  <path d="M42.6 55h10.8v11c0 2.4-2.4 4.4-5.4 4.4s-5.4-2-5.4-4.4z" fill="#D8946F"/>
  <path d="M41 66 48 80M55 66 48 80" stroke="#A3591A" stroke-width="1.4" stroke-linecap="round"/>
  <circle cx="44.5" cy="84" r="1.2" fill="#7A3F10"/>
  <path d="M25 80c2.2-7 7.5-10.8 13-12" stroke="#FFFFFF" stroke-opacity="0.35" stroke-width="3" stroke-linecap="round" fill="none"/>
  <ellipse cx="32.6" cy="43" rx="3" ry="4" fill="#E2A07D"/>
  <ellipse cx="63.4" cy="43" rx="3" ry="4" fill="#E2A07D"/>
  <ellipse cx="48" cy="42" rx="15.2" ry="17" fill="url(#skin)"/>
  <path d="M32.6 44c-1.8-7 .2-12.5 3.4-14.5 1.2 4 .6 9 .4 14.5zM63.4 44c1.8-7-.2-12.5-3.4-14.5-1.2 4-.6 9-.4 14.5z" fill="url(#silver)"/>
  <ellipse cx="42" cy="31.5" rx="5" ry="2.6" fill="#FFFFFF" fill-opacity="0.35"/>
  <path d="M38.5 37.6c1.6-1 3.6-1 5 0M52.5 37.6c1.4-1 3.4-1 5 0" stroke="#F4F4F4" stroke-width="1.8" stroke-linecap="round" fill="none"/>
  <circle cx="42" cy="43" r="4.4" fill="#FFFFFF" fill-opacity="0.25" stroke="#5B4636" stroke-width="1.4"/>
  <circle cx="54" cy="43" r="4.4" fill="#FFFFFF" fill-opacity="0.25" stroke="#5B4636" stroke-width="1.4"/>
  <path d="M46.4 43h3.2" stroke="#5B4636" stroke-width="1.4"/>
  <ellipse cx="42" cy="43.4" rx="1.4" ry="1.7" fill="#2B1B14"/>
  <ellipse cx="54" cy="43.4" rx="1.4" ry="1.7" fill="#2B1B14"/>
  <ellipse cx="38" cy="50" rx="2.5" ry="1.5" fill="#F07F7F" fill-opacity="0.35"/>
  <ellipse cx="58" cy="50" rx="2.5" ry="1.5" fill="#F07F7F" fill-opacity="0.35"/>
  <path d="M41.5 50.5c2.2-1.4 4.4-1.2 6.5 0 2.1-1.2 4.3-1.4 6.5 0-1.6 2.2-4.4 2.4-6.5 1.2-2.1 1.2-4.9 1-6.5-1.2z" fill="url(#silver)"/>
  <path d="M45.2 54.6c1.8 1.2 3.8 1.2 5.6 0" stroke="#9A4B36" stroke-width="1.3" stroke-linecap="round" fill="none"/>
</svg>
