<svg xmlns="http://www.w3.org/2000/svg" viewBox="0 0 24 24" fill="none" stroke="currentColor" stroke-width="1.6" stroke-linecap="round" stroke-linejoin="round"><path d="M4 14h10v4a3 3 0 0 1-3 3H7a3 3 0 0 1-3-3z" fill="currentColor" fill-opacity="0.2" stroke="none"/><path d="M5 8h8a1 1 0 0 1 1 1v9a3 3 0 0 1-3 3H7a3 3 0 0 1-3-3V9a1 1 0 0 1 1-1z"/><path d="M9 8V5.5A2.5 2.5 0 0 1 11.5 3H13 M10.5 11.5h2"/><circle cx="18.5" cy="7" r="3.3" fill="currentColor" fill-opacity="0.2" stroke="none"/><circle cx="18.5" cy="7" r="3.3"/><path d="M18.5 5.6v2.8 M17.1 7h2.8"/></svg>
