<svg xmlns="http://www.w3.org/2000/svg" viewBox="0 0 96 96">
  <defs>
    <radialGradient id="skin" cx="0.38" cy="0.32" r="0.8">
      <stop offset="0" stop-color="#FDE0CA"/>
      <stop offset="0.6" stop-color="#F2B38E"/>
      <stop offset="1" stop-color="#D98B67"/>
    </radialGradient>
    <radialGradient id="hair" cx="0.35" cy="0.25" r="0.85">
      <stop offset="0" stop-color="#6B4433"/>
      <stop offset="1" stop-color="#26160F"/>
    </radialGradient>
    <linearGradient id="scrub" x1="0.2" y1="0" x2="0.8" y2="1">
      <stop offset="0" stop-color="#7DDCCB"/>
      <stop offset="1" stop-color="#1F8C7C"/>
    </linearGradient>
    <linearGradient id="cap" x1="0" y1="0" x2="0" y2="1">
      <stop offset="0" stop-color="#FFFFFF"/>
      <stop offset="1" stop-color="#D5E0DA"/>
    </linearGradient>
  </defs>
  <ellipse cx="48" cy="89.5" rx="27" ry="3.6" fill="#1B2A20" fill-opacity="0.1"/>
  <path d="M19 89c0-14.5 11.8-23.5 29-23.5S77 74.5 77 89z" fill="url(#scrub)"/>
  <path d="M40.5 66.2 48 76l7.5-9.8z" fill="#E7A27E"/>
  <path d="M42.6 55h10.8v11c0 2.4-2.4 4.4-5.4 4.4s-5.4-2-5.4-4.4z" fill="#DE966F"/>
  <path d="M25 80c2.2-7 7.5-10.8 13-12" stroke="#FFFFFF" stroke-opacity="0.35" stroke-width="3" stroke-linecap="round" fill="none"/>
  <path d="M37.5 67.5c-1.5 7 1 12.5 6.5 13.5M58.5 67.5c1.5 7-1 12.5-6.5 13.5" stroke="#28343D" stroke-width="1.8" stroke-linecap="round" fill="none"/>
  <circle cx="48" cy="81.5" r="3.2" fill="#C9D3DA"/>
  <circle cx="47.2" cy="80.7" r="1.1" fill="#FFFFFF" fill-opacity="0.8"/>
  <circle cx="48" cy="20.5" r="7.5" fill="url(#hair)"/>
  <ellipse cx="48" cy="40" rx="17.5" ry="18.5" fill="url(#hair)"/>
  <ellipse cx="32.6" cy="43" rx="3" ry="4" fill="#E6A07B"/>
  <ellipse cx="63.4" cy="43" rx="3" ry="4" fill="#E6A07B"/>
  <ellipse cx="48" cy="42.5" rx="15" ry="16.5" fill="url(#skin)"/>
  <path d="M32.8 41c0-11.2 6.6-17.5 15.2-17.5S63.2 29.8 63.2 41c-3.2-6.2-8.3-9.6-15.2-9.6S36 34.8 32.8 41z" fill="url(#hair)"/>
  <path d="M36.5 31c1.5-8.5 21.5-8.5 23 0l-1.6 3.6c-6.4-2.2-13.4-2.2-19.8 0z" fill="url(#cap)"/>
  <path d="M46.7 25.3h2.6v1.7H51v2.6h-1.7v1.7h-2.6v-1.7H45V27h1.7z" fill="#E5484D"/>
  <ellipse cx="42.5" cy="44" rx="1.7" ry="2.1" fill="#2B1B14"/>
  <ellipse cx="53.5" cy="44" rx="1.7" ry="2.1" fill="#2B1B14"/>
  <circle cx="43.1" cy="43.2" r="0.6" fill="#FFFFFF"/>
  <circle cx="54.1" cy="43.2" r="0.6" fill="#FFFFFF"/>
  <ellipse cx="38.6" cy="49.5" rx="2.6" ry="1.6" fill="#F07F7F" fill-opacity="0.4"/>
  <ellipse cx="57.4" cy="49.5" rx="2.6" ry="1.6" fill="#F07F7F" fill-opacity="0.4"/>
  <path d="M44.6 51.6c1.9 1.9 4.9 1.9 6.8 0" stroke="#9A4B36" stroke-width="1.4" stroke-linecap="round" fill="none"/>
  <ellipse cx="42" cy="34.5" rx="4" ry="2" fill="#FFFFFF" fill-opacity="0.25"/>
</svg>
