<svg xmlns="http://www.w3.org/2000/svg" viewBox="0 0 96 96">
  <defs>
    <linearGradient id="g" x1="0" y1="0" x2="1" y2="1">
      <stop offset="0" stop-color="#6FCF97"/>
      <stop offset="1" stop-color="#26593B"/>
    </linearGradient>
    <linearGradient id="a" x1="0" y1="0" x2="1" y2="1">
      <stop offset="0" stop-color="#FCD34D"/>
      <stop offset="1" stop-color="#D97706"/>
    </linearGradient>
    <linearGradient id="p" x1="0" y1="0" x2="1" y2="1">
      <stop offset="0" stop-color="#F9A8C9"/>
      <stop offset="1" stop-color="#DB2777"/>
    </linearGradient>
    <linearGradient id="b" x1="0" y1="0" x2="1" y2="1">
      <stop offset="0" stop-color="#93C5FD"/>
      <stop offset="1" stop-color="#2563EB"/>
    </linearGradient>
  </defs>
  <ellipse cx="48" cy="88.5" rx="30" ry="3.6" fill="#1B2A20" fill-opacity="0.1"/>
  <rect x="17" y="20" width="28" height="28" rx="9" fill="#1F5236"/>
  <rect x="17" y="17" width="28" height="28" rx="9" fill="url(#g)"/>
  <rect x="51" y="20" width="28" height="28" rx="9" fill="#B45309"/>
  <rect x="51" y="17" width="28" height="28" rx="9" fill="url(#a)"/>
  <rect x="17" y="55" width="28" height="28" rx="9" fill="#9D174D"/>
  <rect x="17" y="52" width="28" height="28" rx="9" fill="url(#p)"/>
  <rect x="51" y="55" width="28" height="28" rx="9" fill="#1E40AF"/>
  <rect x="51" y="52" width="28" height="28" rx="9" fill="url(#b)"/>
  <path d="M22 24c2-2.4 5-3.4 9-3.4M56 24c2-2.4 5-3.4 9-3.4M22 59c2-2.4 5-3.4 9-3.4M56 59c2-2.4 5-3.4 9-3.4" stroke="#FFFFFF" stroke-opacity="0.55" stroke-width="2.2" stroke-linecap="round" fill="none"/>
</svg>
